<svg xmlns="http://www.w3.org/2000/svg" width="42" height="33" viewBox="0 0 42 33"><path fill="#46A3B1" d="M35.071 26.77c-.47 1.435-.314 2.912.49 4.353.45.807-.104 1.804-1.034 1.857a12.444 12.444 0 0 1-4.521-.59c-1.956-.629-3.681-1.698-5.02-3.08a29.95 29.95 0 0 1-3.986.263c-11.52 0-21-6.5-21-14.786S9.48 0 21 0s21 6.501 21 14.787c0 4.036-2.275 7.77-6.185 10.502-.32.455-.57.95-.744 1.48zm-2.406-.775a8.089 8.089 0 0 1 1.239-2.364 1.26 1.26 0 0 1 .295-.28c3.38-2.306 5.27-5.36 5.27-8.564 0-6.664-8.19-12.28-18.469-12.28-10.279 0-18.47 5.616-18.47 12.28 0 6.663 8.191 12.28 18.47 12.28 1.453 0 2.883-.112 4.271-.333.439-.07.882.094 1.168.43 1.089 1.28 2.596 2.279 4.348 2.843.584.188 1.174.32 1.764.4a7.576 7.576 0 0 1 .114-4.412z"/></svg>