<svg width="287" height="263" viewBox="0 0 287 263" xmlns="http://www.w3.org/2000/svg"><g transform="matrix(-1 0 0 1 287 -24)" fill-rule="evenodd" fill-opacity=".15"><path d="M128.122 201.007c13.005 3.42 26.121 5.484 39.606 5.082 7.49-.224 14.993-.68 22.47-.453 13.564.417 27.029 2.264 39.314 8.164 11.872 5.7 22.111 13.695 30.022 24.486 7.892 10.766 12.65 22.649 14.26 35.777 1.383 11.284.08 22.328-3.711 33.089-3.339 9.474-8.15 18.1-15.019 25.506-13.785 14.86-30.745 23.115-51.144 25.007-12.878 1.195-25.138-.862-36.93-5.312-7.7-2.905-15.044-6.932-22.154-11.115-10.917-6.42-21.551-13.369-33.633-17.488-8.583-2.927-17.405-5.17-26.095-7.798-9.99-3.022-19.65-7.033-27.913-13.315-17.973-13.664-27.362-31.702-25.476-54.525 1.015-12.287 6.294-22.886 14.646-32.113 7.427-8.207 16.463-13.699 26.952-16.989 7.087-2.223 14.34-3.465 21.968-3.04 11.16-.375 22.052 2.2 32.837 5.037z"/><path d="M355.294 230.558c-9.008 15.286-19.136 26.128-31.638 34.96-9.152 6.467-18.958 11.59-29.353 15.436-10.648 3.936-21.697 6.693-32.955 8.45-16.35 2.551-32.766 3.537-49.317 2.858-18.406-.755-36.23-4.225-53.178-11.386-6.223-2.63-12.443-5.592-17.817-9.959-4.063-3.303-8.694-6-12.359-9.68-5.333-5.353-10.41-11.064-14.908-17.135-9.05-12.206-14.2-26.132-16.014-41.196-.993-8.242-2.02-16.558-1.94-24.83.085-8.581 1.396-17.159 2.347-25.72.802-7.25 1.728-14.49 2.835-21.7 1.62-10.54 2.819-21.203 5.342-31.535 3.212-13.156 6.52-26.422 13.55-38.263 6.813-11.48 15.57-21.279 27.197-27.9 10.178-5.797 21.365-8.294 33.224-8.165 13.102.14 24.965 4.332 36.016 10.676 8.073 4.634 15.47 10.444 22.33 16.86 5.654 5.284 11.236 10.703 17.34 15.42 6.428 4.968 12.85 10.049 20.22 13.676 10.455 5.147 20.93 10.261 31.294 15.585 9.105 4.68 17.43 10.562 25.377 17.03 6.52 5.306 12.086 11.484 16.71 18.403 8.69 13.012 15.1 26.928 16.312 42.916.723 9.507 1.134 18.938-1 28.282-1.04 4.552-2.287 9.093-3.905 13.465-1.967 5.324-4.424 10.464-5.71 13.452"/><ellipse cx="32.605" cy="136.22" rx="32.605" ry="32.648"/></g></svg>