<svg width="359" height="422" viewBox="0 0 359 422" xmlns="http://www.w3.org/2000/svg"><g transform="translate(-204 -35)" fill-rule="evenodd" fill-opacity=".15"><path d="M471.99 304.207c.222 11.11-3.455 28.417-11.597 44.382-9.36 18.355-18.682 36.881-29.897 54.09-24.413 37.465-59.578 55.691-104.156 54.24-52.522-1.709-99.487-43.573-108.362-95.825-4.122-24.274-2.08-47.966 8.771-69.99 10.138-20.576 20.55-41.29 33.386-60.187 42.664-62.812 131.278-68.33 181.944-11.983 19.882 22.112 29.75 48.401 29.912 85.273"/><ellipse cx="529.605" cy="285.648" rx="32.605" ry="32.648"/><path d="M110.046 323.272c-5.663-9.641-10.897-19.568-17.09-28.853-8.794-13.18-18.044-26.075-27.568-38.74-8.708-11.578-16.503-23.588-18.27-38.213-2.893-23.998 7.246-42.27 25.994-56.307C80.76 155.432 88.634 150 96.168 144.13c12.181-9.486 19.288-22.655 26.012-36.219 6.423-12.952 12.304-26.49 20.753-38.056C174.6 26.51 237.28 24.921 274.438 60.903c12.291 11.902 19.604 26.705 24.391 42.843 3.47 11.69 6.606 23.478 9.77 35.255 4.883 18.188 13.56 34.763 21.908 51.478 10.705 21.432 17.869 43.782 17.301 67.987-1.345 57.342-35.837 105.53-89.12 120.603-52.295 14.794-98.324 1.784-135.627-39.224-1.926-2.115-3.942-4.17-5.637-6.46-2.474-3.345-4.694-6.877-7.023-10.328l-.355.215"/></g></svg>