<svg xmlns="http://www.w3.org/2000/svg" width="42" height="42" viewBox="0 0 42 42"><path fill="#46A3B1" fill-rule="evenodd" stroke="#F6F7F8" d="M4.334 18.302v.004-.004zm0 14.263v4.749l23.843-.074-.073-5.134a3.249 3.249 0 0 1 4.347-3.061c1.525.543 3.336.038 4.365-1.252.76-.95 1.025-2.152.747-3.379-.33-1.44-1.534-2.602-2.997-2.892a3.985 3.985 0 0 0-2.07.129 3.372 3.372 0 0 1-3.047-.429 3.187 3.187 0 0 1-1.345-2.625v-5.199l-5.126.074a3.192 3.192 0 0 1-2.627-1.347 3.369 3.369 0 0 1-.428-3.047 3.93 3.93 0 0 0 .128-2.065c-.288-1.467-1.45-2.672-2.892-3-1.221-.275-2.426-.015-3.38.745a3.892 3.892 0 0 0-1.475 3.06c0 .448.077.885.225 1.304.357 1 .205 2.11-.403 2.973a3.256 3.256 0 0 1-2.659 1.377H4.26l.07 4.673a7.125 7.125 0 0 1 2.65.23c2.757.772 4.87 3.166 5.254 5.958a7.273 7.273 0 0 1-1.71 5.782c-1.54 1.765-3.927 2.692-6.19 2.45zm23.843 8.009H4.26A3.265 3.265 0 0 1 1 37.314v-4.947c0-.894.382-1.744 1.048-2.334a3.284 3.284 0 0 1 2.577-.79c1.252.152 2.544-.353 3.386-1.318a3.902 3.902 0 0 0 .923-3.136c-.205-1.473-1.377-2.79-2.85-3.203a3.702 3.702 0 0 0-1.437-.12 3.35 3.35 0 0 1-2.595-.807A3.155 3.155 0 0 1 1 18.306v-4.908a3.264 3.264 0 0 1 3.26-3.26h5.207c-.355-.673-.496-1.49-.496-2.32 0-2.217.995-4.282 2.73-5.667C13.436.766 15.706.263 17.9.763c2.705.615 4.883 2.868 5.423 5.605a7.365 7.365 0 0 1-.246 3.792l5.1-.022a3.264 3.264 0 0 1 3.26 3.26v5.2c1.182-.513 2.495-.6 3.772-.346 2.737.54 4.987 2.72 5.602 5.422.504 2.204-.003 4.464-1.388 6.199-1.902 2.385-5.239 3.332-8.092 2.312l.106 5.129a3.265 3.265 0 0 1-3.26 3.26z"/></svg>