<svg width="308" height="514" viewBox="0 0 308 514" xmlns="http://www.w3.org/2000/svg"><g fill-rule="evenodd" fill-opacity=".15"><path d="M248.591 68.169l7.89-.34c2.905.25 5.817.424 8.71.761 16.286 1.909 30 8.91 41.107 20.95 13.685 14.835 18.714 32.612 17.598 52.551-.528 9.425-2.236 18.637-4.36 27.795-3.14 13.54-3.175 26.904 2.21 39.876 3.666 8.828 7.594 17.547 11.515 26.263 6.18 13.734 11.022 27.867 12.96 42.904.244 1.909.589 3.801.887 5.702.136 3.642.275 7.283.414 10.924-.095.739-.211 1.474-.282 2.215-.634 6.597-.759 13.286-1.971 19.776-5.021 26.84-18.11 49.16-38.882 66.842-16.2 13.797-34.846 22.426-55.829 25.982-11.963 2.029-23.915 2.233-35.87.543-18.384-2.596-35.209-9.32-50.734-19.444-11.686-7.623-21.994-16.907-32.19-26.347-8.782-8.123-17.743-16.11-28.352-21.743-8.974-4.769-18.314-8.866-27.561-13.11-18.265-8.383-35.219-18.664-48.946-33.625C11.784 280.16 2.91 260.752.778 238.378c-.748-7.869-.541-15.803.937-23.617 2.997-15.82 9.518-30.036 19.887-42.417 10.427-12.45 23.476-21.249 38.364-27.371 13.063-5.371 26.701-8.746 40.488-11.595 10.469-2.163 20.88-4.581 30.936-8.328 16.85-6.275 32.573-14.836 47.93-24.104 10.2-6.154 20.208-12.625 30.412-18.776 9.884-5.961 20.4-10.421 31.767-12.656 2.363-.465 4.728-.899 7.092-1.345m-18.517 379.289c6.096-2.142 11.464-2.792 17.024-2.332a46.58 46.58 0 0 1 11.812 2.55c3.895 1.385 7.626 3.191 11.181 5.323a91.766 91.766 0 0 1 14.44 10.681c4.962 4.491 9.126 9.6 12.18 15.528 1.122 2.176 2.165 4.445 2.642 6.905.36 1.862 1.022 3.687 1.183 5.56.235 2.724.314 5.489.148 8.218-.332 5.49-2.157 10.548-5.18 15.146-1.653 2.516-3.315 5.06-5.276 7.335-2.034 2.36-4.41 4.433-6.68 6.585a189.12 189.12 0 0 1-5.876 5.356c-2.921 2.546-5.754 5.223-8.88 7.5-3.979 2.9-8.01 5.808-12.747 7.455-4.592 1.598-9.333 2.277-14.13 1.408-4.2-.76-7.91-2.67-11.19-5.465-3.626-3.087-5.956-7.01-7.555-11.339-1.168-3.163-1.873-6.494-2.285-9.869-.34-2.78-.63-5.58-1.23-8.309-.63-2.872-1.233-5.775-2.44-8.495-1.714-3.86-3.44-7.714-5.087-11.601-1.446-3.416-2.392-6.983-3.096-10.625a29.898 29.898 0 0 1-.354-8.99c.622-5.628 2.092-10.977 5.5-15.692 2.025-2.804 4.12-5.514 6.905-7.607 1.356-1.021 2.768-1.99 4.244-2.825 1.797-1.019 3.688-1.872 4.747-2.401z"/><path d="M243.615 29.04c2.916-5.051 6.292-9.781 10.732-13.745 9.703-8.66 21.67-13.643 36.278-14.346 9.322-.45 18.694.872 27.963 4.069 9.078 3.13 17.567 7.628 25.59 13.123 8.492 5.817 16.03 12.589 23.558 19.376 5.94 5.356 11.757 10.83 17.53 16.338 6.196 5.91 12.279 11.918 18.406 17.886 4.397 4.281 9.183 8.314 13.1 12.902 8.593 10.067 16.377 20.558 22.245 31.987 7.317 14.244 11.386 28.745 11.996 43.457.39 9.399-.542 18.552-3.08 27.34-2.128 7.363-4.733 14.53-8.812 20.852-5.124 7.943-11.278 15.178-18.81 21.401-8.658 7.154-18.667 12.466-29.79 16.132-17.376 5.722-36.126 6.824-55.862 3.598-10.916-1.785-21.697-4.912-31.999-9.515-12.54-5.603-24.19-12.757-34.797-21.656-9.06-7.603-16.952-15.911-23.506-25.193-7.331-10.38-12.767-21.319-16.51-32.824-4.067-12.497-5.678-24.897-5.199-37.108.351-8.977 1.897-17.77 3.44-26.491 2.411-13.651 5.204-27.192 7.966-40.74 1.929-9.464 4.676-18.605 9.561-26.844z"/></g></svg>