<svg xmlns="http://www.w3.org/2000/svg" width="42" height="39" viewBox="0 0 42 39"><path fill="#46A3B1" fill-rule="evenodd" stroke="#F6F7F8" d="M40.34 25.5a1.6 1.6 0 0 1 .582 1.79l-3.056 9.404a1.6 1.6 0 0 1-1.522 1.106h-9.888a1.597 1.597 0 0 1-1.522-1.106L21.88 27.29a1.597 1.597 0 0 1 .58-1.788l8-5.813a1.6 1.6 0 0 1 1.882 0l8 5.813zM4.2 17a1.6 1.6 0 0 1-1.6-1.6V2.6A1.6 1.6 0 0 1 4.2 1H17a1.6 1.6 0 0 1 1.6 1.6v12.8A1.6 1.6 0 0 1 17 17H4.2zm7.799 4.022l8 14.4A1.6 1.6 0 0 1 18.6 37.8h-16a1.6 1.6 0 0 1-1.38-.79 1.604 1.604 0 0 1-.018-1.588l8-14.4c.561-1.016 2.233-1.016 2.797 0zM31.399 17c-4.41 0-8-3.589-8-8s3.59-8 8-8c4.412 0 8 3.589 8 8s-3.588 8-8 8zm0-12.8A4.806 4.806 0 0 0 26.6 9c0 2.646 2.154 4.8 4.8 4.8 2.647 0 4.8-2.154 4.8-4.8s-2.153-4.8-4.8-4.8zM5.32 34.6h10.563L10.6 25.094 5.32 34.6zm29.862 0l2.337-7.194-6.118-4.445-6.118 4.445 2.336 7.194h7.563zM5.8 13.8h9.6V4.2H5.8v9.6z"/></svg>