<svg width="146" height="291" viewBox="0 0 146 291" xmlns="http://www.w3.org/2000/svg"><g fill-rule="evenodd" fill-opacity=".15"><path d="M.007 175.164c-.168 8.423 2.62 21.544 8.789 33.647 7.093 13.915 14.157 27.96 22.656 41.008 18.501 28.402 45.15 42.22 78.931 41.12 39.802-1.296 75.393-33.034 82.118-72.648 3.124-18.402 1.576-36.363-6.647-53.061-7.683-15.599-15.573-31.303-25.3-45.629-32.331-47.62-99.484-51.802-137.88-9.084C7.608 127.28.13 147.211.007 175.164"/><path d="M274.533 189.53c4.295-7.315 8.265-14.847 12.963-21.892 6.67-10 13.686-19.785 20.909-29.394 6.605-8.786 12.517-17.899 13.857-28.996 2.195-18.208-5.496-32.073-19.716-42.724-5.8-4.345-11.773-8.467-17.487-12.92-9.24-7.198-14.63-17.19-19.73-27.482-4.87-9.828-9.332-20.1-15.74-28.876-24.018-32.89-71.56-34.096-99.743-6.793-9.323 9.03-14.87 20.263-18.5 32.508-2.632 8.87-5.01 17.814-7.41 26.75-3.704 13.8-10.285 26.377-16.617 39.06-8.12 16.262-13.553 33.22-13.123 51.587 1.02 43.51 27.182 80.073 67.595 91.51 39.665 11.226 74.577 1.354 102.87-29.762 1.46-1.605 2.99-3.164 4.276-4.902 1.876-2.538 3.56-5.218 5.327-7.836.09.054.179.11.269.163"/></g></svg>